<?xml version="1.0" encoding="UTF-8" standalone="no"?>
<!-- Created with Inkscape (http://www.inkscape.org/) -->

<svg
   width="132.29167mm"
   height="132.29167mm"
   viewBox="0 0 132.29167 132.29167"
   version="1.1"
   id="svg1"
   inkscape:version="1.4.2 (ebf0e94, 2025-05-08)"
   sodipodi:docname="compromiso.svg"
   xmlns:inkscape="http://www.inkscape.org/namespaces/inkscape"
   xmlns:sodipodi="http://sodipodi.sourceforge.net/DTD/sodipodi-0.dtd"
   xmlns="http://www.w3.org/2000/svg"
   xmlns:svg="http://www.w3.org/2000/svg">
  <sodipodi:namedview
     id="namedview1"
     pagecolor="#ffffff"
     bordercolor="#000000"
     borderopacity="0.25"
     inkscape:showpageshadow="2"
     inkscape:pageopacity="0.0"
     inkscape:pagecheckerboard="0"
     inkscape:deskcolor="#d1d1d1"
     inkscape:document-units="px"
     showgrid="true"
     showguides="true"
     inkscape:zoom="0.36213174"
     inkscape:cx="418.35604"
     inkscape:cy="454.25458"
     inkscape:window-width="1920"
     inkscape:window-height="1009"
     inkscape:window-x="-8"
     inkscape:window-y="1192"
     inkscape:window-maximized="1"
     inkscape:current-layer="layer1">
    <inkscape:grid
       type="axonomgrid"
       id="grid1"
       units="px"
       originx="0"
       originy="0"
       spacingx="0"
       spacingy="26.458332"
       empcolor="#0099e5"
       empopacity="0.30196078"
       color="#0099e5"
       opacity="0.14901961"
       empspacing="5"
       dotted="false"
       gridanglex="45"
       gridanglez="45"
       visible="true" />
  </sodipodi:namedview>
  <defs
     id="defs1">
    <inkscape:path-effect
       effect="fillet_chamfer"
       id="path-effect1"
       is_visible="true"
       lpeversion="1"
       nodesatellites_param="F,0,0,1,0,2.983221,0,1 @ F,0,0,1,0,0,0,1 @ F,0,0,1,0,0,0,1 @ F,0,0,1,0,0,0,1 @ F,0,0,1,0,0,0,1 @ F,0,0,1,0,0,0,1 @ F,0,0,1,0,0,0,1 @ F,0,0,1,0,0,0,1 @ F,0,0,1,0,0,0,1 @ F,0,0,1,0,0,0,1 @ F,0,0,1,0,3.0194932,0,1"
       radius="0"
       unit="px"
       method="auto"
       mode="F"
       chamfer_steps="1"
       flexible="false"
       use_knot_distance="true"
       apply_no_radius="true"
       apply_with_radius="true"
       only_selected="false"
       hide_knots="false" />
    <inkscape:path-effect
       effect="tiling"
       id="path-effect11"
       is_visible="true"
       lpeversion="1"
       unit="px"
       seed="1;1"
       lpesatellites=""
       num_rows="17"
       num_cols="1"
       gapx="0"
       gapy="-97.9"
       offset="0"
       offset_type="false"
       scale="0"
       rotate="0"
       mirrorrowsx="false"
       mirrorrowsy="false"
       mirrorcolsx="false"
       mirrorcolsy="false"
       mirrortrans="false"
       shrink_interp="false"
       split_items="false"
       link_styles="false"
       interpolate_scalex="false"
       interpolate_scaley="true"
       interpolate_rotatex="false"
       interpolate_rotatey="true"
       random_scale="false"
       random_rotate="false"
       random_gap_y="false"
       random_gap_x="false"
       transformorigin="" />
    <inkscape:path-effect
       effect="tiling"
       id="path-effect8"
       is_visible="true"
       lpeversion="1"
       unit="px"
       seed="1;1"
       lpesatellites=""
       num_rows="1"
       num_cols="17"
       gapx="5"
       gapy="0"
       offset="0"
       offset_type="false"
       scale="0"
       rotate="0"
       mirrorrowsx="false"
       mirrorrowsy="false"
       mirrorcolsx="false"
       mirrorcolsy="false"
       mirrortrans="false"
       shrink_interp="false"
       split_items="false"
       link_styles="false"
       interpolate_scalex="false"
       interpolate_scaley="true"
       interpolate_rotatex="false"
       interpolate_rotatey="true"
       random_scale="false"
       random_rotate="false"
       random_gap_y="false"
       random_gap_x="false"
       transformorigin="" />
  </defs>
  <g
     inkscape:label="Capa 1"
     inkscape:groupmode="layer"
     id="layer1">
    <path
       id="path1"
       style="fill:#000000;fill-opacity:1;stroke:none;stroke-width:14.4377;stroke-linejoin:round;stroke-opacity:1"
       d="M 66.145831 0 A 66.145828 66.145828 0 0 0 5.6978432 39.288557 L 20.843688 41.695128 L 46.228701 40.91223 L 66.200091 25.680602 L 98.749008 8.5932736 A 66.145828 66.145828 0 0 0 66.145831 0 z M 123.12995 32.558735 L 110.72605 40.953054 L 106.70769 59.519362 L 98.191419 75.026942 L 110.99632 87.900575 A 2.910706 2.910706 0 0 1 111.33584 91.593889 L 102.55446 104.45305 A 2.910706 2.910706 0 0 1 101.10752 107.99599 L 86.773512 113.08767 A 2.910706 2.910706 0 0 1 84.007789 112.6386 L 78.603468 108.41973 L 55.083974 110.35553 A 2.910706 2.910706 0 0 1 52.882558 109.60571 L 36.771398 94.89653 L 4.5433918 90.238416 A 66.145828 66.145828 0 0 0 66.145831 132.29166 A 66.145828 66.145828 0 0 0 132.29166 66.145831 A 66.145828 66.145828 0 0 0 123.12995 32.558735 z M 3.5367349 44.807083 A 66.145828 66.145828 0 0 0 0 66.145831 A 66.145828 66.145828 0 0 0 2.475301 84.070834 A 2.9104149 2.9104149 0 0 1 2.7579711 84.097706 L 38.490156 89.263799 A 2.910706 2.910706 0 0 1 40.035281 89.993987 L 55.871006 104.45099 L 71.675726 103.15029 L 60.693451 94.43971 L 60.675881 94.425758 A 2.9111227 2.9111227 0 0 1 64.275144 89.84981 L 64.292714 89.863245 L 64.296848 89.86738 L 86.330128 107.0684 L 94.72238 104.0877 L 72.636907 82.00171 L 72.630706 81.996026 A 2.910706 2.910706 0 0 1 76.742083 77.87483 L 76.747767 77.881032 L 98.722653 99.744296 L 105.17187 90.298878 L 75.057948 60.023724 L 46.933568 79.520725 A 3.6765594 3.6765594 0 0 1 42.282172 79.14142 L 39.742792 76.684205 A 3.2219385 3.2219385 0 0 1 39.502497 72.312896 L 61.083091 46.276243 L 20.748087 47.523196 A 2.910706 2.910706 0 0 1 20.2029 47.488056 L 3.9511799 44.904234 A 2.9104149 2.9104149 0 0 1 3.5367349 44.807083 z " />
  </g>
</svg>
