<?xml version="1.0" encoding="UTF-8" standalone="no"?>
<!-- Created with Inkscape (http://www.inkscape.org/) -->

<svg
   width="132.29167mm"
   height="132.29167mm"
   viewBox="0 0 132.29167 132.29167"
   version="1.1"
   id="svg1"
   inkscape:version="1.4.2 (ebf0e94, 2025-05-08)"
   sodipodi:docname="ejecucion.svg"
   xmlns:inkscape="http://www.inkscape.org/namespaces/inkscape"
   xmlns:sodipodi="http://sodipodi.sourceforge.net/DTD/sodipodi-0.dtd"
   xmlns="http://www.w3.org/2000/svg"
   xmlns:svg="http://www.w3.org/2000/svg">
  <sodipodi:namedview
     id="namedview1"
     pagecolor="#ffffff"
     bordercolor="#000000"
     borderopacity="0.25"
     inkscape:showpageshadow="2"
     inkscape:pageopacity="0.0"
     inkscape:pagecheckerboard="0"
     inkscape:deskcolor="#d1d1d1"
     inkscape:document-units="px"
     showgrid="true"
     showguides="true"
     inkscape:zoom="0.5121316"
     inkscape:cx="1032.9376"
     inkscape:cy="455.93749"
     inkscape:window-width="1920"
     inkscape:window-height="1009"
     inkscape:window-x="-8"
     inkscape:window-y="1192"
     inkscape:window-maximized="1"
     inkscape:current-layer="layer1">
    <inkscape:grid
       type="axonomgrid"
       id="grid1"
       units="px"
       originx="0"
       originy="0"
       spacingx="0"
       spacingy="13.229166"
       empcolor="#0099e5"
       empopacity="0.30196078"
       color="#0099e5"
       opacity="0.14901961"
       empspacing="5"
       dotted="false"
       gridanglex="45"
       gridanglez="45"
       visible="true" />
    <inkscape:grid
       type="axonomgrid"
       id="grid2"
       units="px"
       originx="0"
       originy="0"
       spacingx="0.99999996"
       spacingy="0.99999996"
       empcolor="#0099e5"
       empopacity="0.30196078"
       color="#0099e5"
       opacity="0.14901961"
       empspacing="5"
       dotted="false"
       gridanglex="30"
       gridanglez="30"
       enabled="true"
       visible="true" />
  </sodipodi:namedview>
  <defs
     id="defs1">
    <inkscape:path-effect
       effect="tiling"
       id="path-effect11"
       is_visible="true"
       lpeversion="1"
       unit="px"
       seed="1;1"
       lpesatellites=""
       num_rows="17"
       num_cols="1"
       gapx="0"
       gapy="-97.9"
       offset="0"
       offset_type="false"
       scale="0"
       rotate="0"
       mirrorrowsx="false"
       mirrorrowsy="false"
       mirrorcolsx="false"
       mirrorcolsy="false"
       mirrortrans="false"
       shrink_interp="false"
       split_items="false"
       link_styles="false"
       interpolate_scalex="false"
       interpolate_scaley="true"
       interpolate_rotatex="false"
       interpolate_rotatey="true"
       random_scale="false"
       random_rotate="false"
       random_gap_y="false"
       random_gap_x="false"
       transformorigin="" />
    <inkscape:path-effect
       effect="tiling"
       id="path-effect8"
       is_visible="true"
       lpeversion="1"
       unit="px"
       seed="1;1"
       lpesatellites=""
       num_rows="1"
       num_cols="17"
       gapx="5"
       gapy="0"
       offset="0"
       offset_type="false"
       scale="0"
       rotate="0"
       mirrorrowsx="false"
       mirrorrowsy="false"
       mirrorcolsx="false"
       mirrorcolsy="false"
       mirrortrans="false"
       shrink_interp="false"
       split_items="false"
       link_styles="false"
       interpolate_scalex="false"
       interpolate_scaley="true"
       interpolate_rotatex="false"
       interpolate_rotatey="true"
       random_scale="false"
       random_rotate="false"
       random_gap_y="false"
       random_gap_x="false"
       transformorigin="" />
  </defs>
  <g
     inkscape:label="Capa 1"
     inkscape:groupmode="layer"
     id="layer1">
    <path
       id="path1"
       style="fill:#000000;fill-opacity:1;stroke:none;stroke-width:10.1831;stroke-linejoin:round;stroke-opacity:1"
       d="M 66.145831 0 A 66.145828 66.145828 0 0 0 0 66.145831 A 66.145828 66.145828 0 0 0 40.486416 127.11213 L 40.486416 102.59477 L 39.705069 101.99429 A 2.9104149 2.9104149 0 0 1 36.228278 100.86516 A 2.9104149 2.9104149 0 0 1 36.652542 99.279208 A 2.910706 2.910706 0 0 1 37.216848 95.021587 L 40.486416 93.11421 L 40.486416 56.556236 L 39.310777 55.652415 A 2.9104149 2.9104149 0 0 1 36.228278 54.828176 A 2.9104149 2.9104149 0 0 1 36.652542 53.240159 A 2.910706 2.910706 0 0 1 37.216848 48.984605 L 40.486416 47.077228 L 40.486416 30.62707 A 2.9104149 2.9104149 0 0 1 43.396316 27.716653 A 2.9104149 2.9104149 0 0 1 46.306733 30.62707 L 46.306733 43.682087 L 51.165867 40.847634 A 2.9104149 2.9104149 0 0 1 54.121242 41.115318 L 61.652565 36.760029 L 61.652565 14.752071 A 2.9104149 2.9104149 0 0 1 64.564532 11.841654 A 2.9104149 2.9104149 0 0 1 67.474432 14.752071 L 67.474432 22.038447 A 2.9104149 2.9104149 0 0 1 68.624749 21.933544 A 2.9104149 2.9104149 0 0 1 71.202886 25.14265 C 70.73906 29.381573 70.338366 33.533622 69.992108 37.61114 L 83.879115 45.683515 L 83.879115 27.451037 A 2.9104149 2.9104149 0 0 1 86.789015 24.541137 A 2.9104149 2.9104149 0 0 1 89.699431 27.451037 L 89.699431 49.066771 L 92.974683 50.97053 A 2.910706 2.910706 0 0 1 92.951429 56.0157 L 89.699431 57.8683 L 89.699431 95.104269 L 92.974683 97.008029 A 2.910706 2.910706 0 0 1 92.951429 102.05268 L 89.699431 103.90528 L 89.699431 127.95601 A 66.145828 66.145828 0 0 0 132.29166 66.145831 A 66.145828 66.145828 0 0 0 66.145831 0 z M 61.652565 43.483649 L 46.306733 52.362177 L 46.306733 53.688711 L 61.652565 65.485923 L 61.652565 43.483649 z M 69.485162 44.048473 C 69.006937 50.629839 68.664142 57.026177 68.418044 63.291742 L 83.879115 54.484528 L 83.879115 52.416437 L 69.485162 44.048473 z M 46.306733 61.030898 L 46.306733 89.719068 L 51.165867 86.884616 A 2.9104149 2.9104149 0 0 1 54.121242 87.1523 L 61.652565 82.79701 L 61.652565 72.659128 A 2.910706 2.910706 0 0 1 60.876902 72.232281 L 46.306733 61.030898 z M 83.879115 61.183343 L 68.184466 70.123366 C 68.063351 74.275482 67.980095 78.377449 67.922467 82.445094 L 83.879115 91.721013 L 83.879115 61.183343 z M 67.849086 89.135641 C 67.793452 96.031174 67.79489 102.85323 67.795859 109.68322 L 83.879115 100.52151 L 83.879115 98.453419 L 67.849086 89.135641 z M 61.652565 89.522698 L 46.306733 98.399158 L 46.306733 99.725692 L 61.652565 111.5229 L 61.652565 89.522698 z M 46.306733 107.06943 L 46.306733 129.24637 A 66.145828 66.145828 0 0 0 61.652565 132.1387 L 61.652565 118.69611 A 2.910706 2.910706 0 0 1 60.876902 118.26978 L 46.306733 107.06943 z M 83.879115 107.22032 L 67.794309 116.38256 L 67.794309 116.38307 C 67.790019 121.64702 67.774011 126.93145 67.720412 132.27306 A 66.145828 66.145828 0 0 0 83.879115 129.8701 L 83.879115 107.22032 z " />
  </g>
</svg>
