<?xml version="1.0" encoding="UTF-8" standalone="no"?>
<!-- Created with Inkscape (http://www.inkscape.org/) -->

<svg
   width="132.29167mm"
   height="132.29167mm"
   viewBox="0 0 132.29167 132.29167"
   version="1.1"
   id="svg1"
   inkscape:version="1.4.2 (ebf0e94, 2025-05-08)"
   sodipodi:docname="empathy.svg"
   xmlns:inkscape="http://www.inkscape.org/namespaces/inkscape"
   xmlns:sodipodi="http://sodipodi.sourceforge.net/DTD/sodipodi-0.dtd"
   xmlns="http://www.w3.org/2000/svg"
   xmlns:svg="http://www.w3.org/2000/svg">
  <sodipodi:namedview
     id="namedview1"
     pagecolor="#ffffff"
     bordercolor="#000000"
     borderopacity="0.25"
     inkscape:showpageshadow="2"
     inkscape:pageopacity="0.0"
     inkscape:pagecheckerboard="0"
     inkscape:deskcolor="#d1d1d1"
     inkscape:document-units="px"
     showgrid="true"
     showguides="true"
     inkscape:zoom="0.5121316"
     inkscape:cx="443.24545"
     inkscape:cy="592.62112"
     inkscape:window-width="1920"
     inkscape:window-height="1009"
     inkscape:window-x="-8"
     inkscape:window-y="1192"
     inkscape:window-maximized="1"
     inkscape:current-layer="layer1">
    <inkscape:grid
       type="axonomgrid"
       id="grid1"
       units="px"
       originx="0"
       originy="0"
       spacingx="0"
       spacingy="26.458332"
       empcolor="#0099e5"
       empopacity="0.30196078"
       color="#0099e5"
       opacity="0.14901961"
       empspacing="5"
       dotted="false"
       gridanglex="45"
       gridanglez="45"
       visible="true" />
  </sodipodi:namedview>
  <defs
     id="defs1">
    <inkscape:path-effect
       effect="fillet_chamfer"
       id="path-effect5"
       is_visible="true"
       lpeversion="1"
       nodesatellites_param="F,0,0,1,0,0,0,1 @ F,0,0,1,0,0,0,1 @ F,0,0,1,0,0,0,1 @ F,0,0,1,0,0,0,1 @ F,0,0,1,0,0,0,1 @ F,0,0,1,0,0,0,1 @ F,0,0,1,0,0,0,1 @ F,0,0,1,0,0,0,1 @ F,0,0,1,0,0,0,1 @ F,0,0,1,0,0,0,1 | F,0,0,1,0,0,0,1 @ F,0,0,1,0,0,0,1 @ F,0,0,1,0,0,0,1 @ F,0,0,1,0,0,0,1 @ F,0,1,1,0,5.1890528,0,1 @ F,0,1,1,0,5.1890528,0,1 @ F,0,0,1,0,0,0,1 @ F,0,0,1,0,0,0,1 | F,0,0,1,0,0,0,1 @ F,0,0,1,0,0,0,1 @ F,0,1,1,0,5.1890528,0,1 @ F,0,0,1,0,5.1890528,0,1 @ F,0,0,1,0,0,0,1 @ F,0,0,1,0,0,0,1 @ F,0,0,1,0,0,0,1 @ F,0,0,1,0,0,0,1"
       radius="0"
       unit="px"
       method="auto"
       mode="F"
       chamfer_steps="1"
       flexible="false"
       use_knot_distance="true"
       apply_no_radius="true"
       apply_with_radius="true"
       only_selected="false"
       hide_knots="false" />
    <inkscape:path-effect
       effect="tiling"
       id="path-effect11"
       is_visible="true"
       lpeversion="1"
       unit="px"
       seed="1;1"
       lpesatellites=""
       num_rows="17"
       num_cols="1"
       gapx="0"
       gapy="-97.9"
       offset="0"
       offset_type="false"
       scale="0"
       rotate="0"
       mirrorrowsx="false"
       mirrorrowsy="false"
       mirrorcolsx="false"
       mirrorcolsy="false"
       mirrortrans="false"
       shrink_interp="false"
       split_items="false"
       link_styles="false"
       interpolate_scalex="false"
       interpolate_scaley="true"
       interpolate_rotatex="false"
       interpolate_rotatey="true"
       random_scale="false"
       random_rotate="false"
       random_gap_y="false"
       random_gap_x="false"
       transformorigin="" />
    <inkscape:path-effect
       effect="tiling"
       id="path-effect8"
       is_visible="true"
       lpeversion="1"
       unit="px"
       seed="1;1"
       lpesatellites=""
       num_rows="1"
       num_cols="17"
       gapx="5"
       gapy="0"
       offset="0"
       offset_type="false"
       scale="0"
       rotate="0"
       mirrorrowsx="false"
       mirrorrowsy="false"
       mirrorcolsx="false"
       mirrorcolsy="false"
       mirrortrans="false"
       shrink_interp="false"
       split_items="false"
       link_styles="false"
       interpolate_scalex="false"
       interpolate_scaley="true"
       interpolate_rotatex="false"
       interpolate_rotatey="true"
       random_scale="false"
       random_rotate="false"
       random_gap_y="false"
       random_gap_x="false"
       transformorigin="" />
  </defs>
  <g
     inkscape:label="Capa 1"
     inkscape:groupmode="layer"
     id="layer1">
    <path
       id="path2"
       style="fill:#000000;fill-opacity:1;stroke:none;stroke-width:13.8678"
       d="m 66.145831,0 c -4.191875,1.8241634e-5 -8.374256,0.39851335 -12.49071,1.1901082 -1.080176,4.3840502 -1.653129,8.9694428 -1.653129,13.6906368 0,8.602088 1.901858,16.753628 5.30872,24.057445 2.99314,2.083497 2.244011,2.098083 9.057328,4.568197 6.813317,2.470114 12.332325,5.086514 18.107938,16.55041 1.485827,2.949188 3.727906,5.466515 5.266345,8.413957 5.979269,2.131001 12.422307,3.290755 19.140437,3.290755 8.34743,0 16.27053,-1.790842 23.40632,-5.01003 0.002,-0.201878 0.003,-0.403762 0.003,-0.605648 C 132.29166,29.614497 102.67716,-5.5228483e-7 66.145831,0 Z M 46.503103,2.9837971 C 27.683903,8.8364174 12.454684,22.775995 4.9640379,41.005248 13.524678,36.700328 23.188806,34.275426 33.411913,34.275426 c 5.403543,0 10.651194,0.677407 15.662092,1.951819 -2.386882,-6.67321 -3.687113,-13.8601 -3.687113,-21.3465 0,-4.065432 0.383515,-8.0425547 1.116211,-11.8969479 z M 33.411913,40.888459 c -11.659841,0 -22.491116,3.494248 -31.5060862,9.49451 C 0.63994802,55.541675 6.365348e-5,60.834081 0,66.145831 c -5.5228481e-7,36.531329 29.614497,66.145829 66.145831,66.145829 4.548516,5e-5 9.084907,-0.46907 13.537158,-1.39991 6.68048,-9.32361 10.610204,-20.75728 10.610204,-33.122011 0,-8.601285 -1.90194,-16.752084 -5.308203,-24.055378 C 81.969688,72.486052 78.810812,70.46078 75.77625,69.374574 67.447563,66.393363 61.772437,63.421038 57.265753,52.561648 56.005028,49.523782 54.084549,47.115376 52.552346,44.179731 46.573152,42.04879 40.129933,40.888459 33.411913,40.888459 Z m 98.399677,33.211408 c -7.11429,2.761969 -14.84684,4.277258 -22.92883,4.277258 -5.40332,0 -10.650356,-0.677431 -15.661063,-1.951818 2.386482,6.672573 3.686596,13.858691 3.686596,21.344432 0,11.003741 -2.809312,21.359841 -7.748881,30.389361 C 112.3749,119.54362 128.8339,98.682765 131.81159,74.099867 Z"
       sodipodi:nodetypes="ccscsscscccccscscsccccscsscscscscc" />
  </g>
</svg>
