<?xml version="1.0" encoding="UTF-8" standalone="no"?>
<!DOCTYPE svg PUBLIC "-//W3C//DTD SVG 1.1//EN" "http://www.w3.org/Graphics/SVG/1.1/DTD/svg11.dtd">
<svg width="100%" height="100%" viewBox="0 0 500 500" version="1.1" xmlns="http://www.w3.org/2000/svg" xmlns:xlink="http://www.w3.org/1999/xlink" xml:space="preserve" xmlns:serif="http://www.serif.com/" style="fill-rule:evenodd;clip-rule:evenodd;stroke-linejoin:round;stroke-miterlimit:2;">
    <g transform="matrix(1.36263,0,0,1.36263,-153.953,-161.242)">
        <path d="M236.274,128.445C255.129,121.892 275.378,118.332 296.452,118.332C349.62,118.332 397.536,140.997 431.057,177.184L306.806,241.182C302.358,199.206 276.649,157.858 236.274,128.445ZM346.545,478.335C330.62,482.852 313.816,485.269 296.452,485.269C222.697,485.269 159.049,441.655 129.913,378.832C186.659,386.403 240.238,370.08 273.461,336.444L346.545,478.335ZM441.761,189.832C465.683,220.821 479.92,259.661 479.92,301.8C479.92,379.952 430.951,446.756 362.049,473.176L291.906,336.994L292.078,336.995C318.556,336.995 340.052,315.437 340.052,288.885C340.052,273.757 333.074,260.25 322.173,251.428L441.761,189.832ZM122.897,361.403C116.471,342.712 112.983,322.66 112.983,301.8C112.983,228.428 156.146,165.058 218.444,135.718C259.147,162.075 285.866,200.978 290.674,240.795C264.844,241.541 244.104,262.803 244.104,288.885C244.104,303.75 250.841,317.05 261.419,325.878C229.811,357.609 177.368,371.358 122.897,361.403Z"/>
    </g>
</svg>
