<?xml version="1.0" encoding="UTF-8" standalone="no"?>
<!-- Created with Inkscape (http://www.inkscape.org/) -->

<svg
   width="132.29167mm"
   height="132.29167mm"
   viewBox="0 0 132.29167 132.29167"
   version="1.1"
   id="svg1"
   xmlns="http://www.w3.org/2000/svg"
   xmlns:svg="http://www.w3.org/2000/svg">
  <defs
     id="defs1" />
  <g
     id="layer1">
    <path
       id="path2"
       style="color:#000000;display:inline;fill:#000000;stroke-linecap:round;-inkscape-stroke:none"
       d="M 38.365099,11.90625 V 39.687499 93.15245 l 14.003796,14.0038 H 106.3811 L 120.9337,92.603647 106.00955,77.76786 V 29.12277 L 122.2561,11.90625 Z m 2.644799,2.64635 H 43.36531 V 94.410255 L 41.009898,92.054843 V 39.687499 Z m 4.999695,0 h 2.355412 v 84.857349 l -2.355412,-2.355411 z m 5.000211,0 h 2.355412 v 89.85756 l -2.355412,-2.35541 z m 5.000212,0 h 2.355412 v 89.9573 h -2.355412 z m 4.999695,0 h 2.355411 v 89.9573 h -2.355411 z m 5.000211,0 h 2.355412 v 89.9573 h -2.355412 z m 4.999695,0 h 2.355411 v 89.9573 h -2.355411 z m 5.000211,0 h 2.355412 v 89.9573 h -2.355412 z m 4.999695,0 h 2.355928 v 89.9573 h -2.355928 z m 5.000211,0 h 2.355412 v 89.9573 h -2.355412 z m 5.000211,0 h 2.355412 v 89.9573 h -2.355412 z m 4.999695,0 h 2.355412 v 89.9573 H 96.00964 Z m 5.00021,0 h 2.35541 v 89.9573 h -2.35541 z m 4.9997,0 h 2.35592 v 7.501867 l -2.35592,2.355928 z m 5.00021,0 h 2.35541 v 2.502172 l -2.35541,2.355412 z m -5.00021,66.870851 2.35592,2.355412 v 17.650597 l -2.35592,2.35593 z m 5.00021,4.999178 2.35541,2.355411 v 7.651729 l -2.35541,2.355412 z m 5.00021,4.999694 1.18132,1.181324 -1.18132,1.181323 z" />
    <path
       id="path12"
       style="fill:#000000;stroke-width:2.64583;stroke-linecap:round"
       d="M 39.138695,11.90625 11.90625,39.138695 v 27.554906 l 13.228649,13.2302 V 105.28504 L 10.035046,120.3849 H 66.693601 L 96.044264,91.56495 93.398431,38.609529 80.310341,25.523506 66.693601,11.90625 Z m 1.097607,2.64635 h 4.471562 L 14.5526,44.823619 v -4.589384 z m 8.206734,0 h 4.572848 L 14.5526,53.163678 v -4.590934 z m 8.30802,0 h 4.572847 L 14.5526,61.50322 v -4.590417 z m 8.307503,0 h 0.538985 l 2.020548,2.020548 -50.946242,51.143646 -2.11925,-2.11925 v -0.345199 z m 4.430737,3.891752 2.290816,2.290816 -50.946759,51.143129 -2.290816,-2.290816 z m 4.16202,4.162019 2.290816,2.290816 -50.946759,51.14313 -2.290817,-2.290816 z m 4.162019,4.16202 0.626319,0.626318 1.664498,1.664498 -52.322903,52.523924 v -2.756938 l -0.914673,-0.914672 z m 4.161503,4.161503 2.291333,2.291333 -56.484922,56.701963 v -4.590417 z m 4.16202,4.16202 2.290816,2.290816 -60.646425,60.880519 v -4.590934 z m 4.16202,4.162019 3.099036,3.099036 V 41.271898 L 16.686319,117.7401 h -0.264583 l 11.359513,-11.359 v -4.36873 z m 3.099036,5.766573 V 49.61144 L 24.994339,117.7401 h -4.573364 z m 0,8.340059 v 4.590934 L 33.302359,117.7401 h -4.572847 z m 0,8.339543 v 4.59145 L 41.610379,117.7401 h -4.573365 z m 0,8.340059 v 4.590934 L 49.918398,117.7401 h -4.573364 z m 0,8.340059 V 82.97116 L 58.226418,117.7401 h -4.573364 z m 0,8.339542 v 3.749125 L 65.597544,117.7401 h -3.63647 z" />
  </g>
</svg>
