<?xml version="1.0" encoding="UTF-8" standalone="no"?>
<!-- Created with Inkscape (http://www.inkscape.org/) -->

<svg
   width="132.29167mm"
   height="132.29167mm"
   viewBox="0 0 132.29167 132.29167"
   version="1.1"
   id="svg1"
   inkscape:version="1.4.2 (ebf0e94, 2025-05-08)"
   sodipodi:docname="entrega.svg"
   xmlns:inkscape="http://www.inkscape.org/namespaces/inkscape"
   xmlns:sodipodi="http://sodipodi.sourceforge.net/DTD/sodipodi-0.dtd"
   xmlns="http://www.w3.org/2000/svg"
   xmlns:svg="http://www.w3.org/2000/svg">
  <sodipodi:namedview
     id="namedview1"
     pagecolor="#ffffff"
     bordercolor="#000000"
     borderopacity="0.25"
     inkscape:showpageshadow="2"
     inkscape:pageopacity="0.0"
     inkscape:pagecheckerboard="0"
     inkscape:deskcolor="#d1d1d1"
     inkscape:document-units="px"
     showgrid="true"
     showguides="true"
     inkscape:zoom="0.70710678"
     inkscape:cx="282.84271"
     inkscape:cy="368.40263"
     inkscape:window-width="1920"
     inkscape:window-height="1009"
     inkscape:window-x="-8"
     inkscape:window-y="1192"
     inkscape:window-maximized="1"
     inkscape:current-layer="layer1">
    <inkscape:grid
       type="axonomgrid"
       id="grid1"
       units="px"
       originx="0"
       originy="0"
       spacingx="0"
       spacingy="13.229166"
       empcolor="#0099e5"
       empopacity="0.30196078"
       color="#0099e5"
       opacity="0.14901961"
       empspacing="5"
       dotted="false"
       gridanglex="45"
       gridanglez="45"
       visible="true" />
  </sodipodi:namedview>
  <defs
     id="defs1">
    <inkscape:path-effect
       effect="tiling"
       id="path-effect11"
       is_visible="true"
       lpeversion="1"
       unit="px"
       seed="1;1"
       lpesatellites=""
       num_rows="17"
       num_cols="1"
       gapx="0"
       gapy="-97.9"
       offset="0"
       offset_type="false"
       scale="0"
       rotate="0"
       mirrorrowsx="false"
       mirrorrowsy="false"
       mirrorcolsx="false"
       mirrorcolsy="false"
       mirrortrans="false"
       shrink_interp="false"
       split_items="false"
       link_styles="false"
       interpolate_scalex="false"
       interpolate_scaley="true"
       interpolate_rotatex="false"
       interpolate_rotatey="true"
       random_scale="false"
       random_rotate="false"
       random_gap_y="false"
       random_gap_x="false"
       transformorigin="" />
    <inkscape:path-effect
       effect="tiling"
       id="path-effect8"
       is_visible="true"
       lpeversion="1"
       unit="px"
       seed="1;1"
       lpesatellites=""
       num_rows="1"
       num_cols="17"
       gapx="5"
       gapy="0"
       offset="0"
       offset_type="false"
       scale="0"
       rotate="0"
       mirrorrowsx="false"
       mirrorrowsy="false"
       mirrorcolsx="false"
       mirrorcolsy="false"
       mirrortrans="false"
       shrink_interp="false"
       split_items="false"
       link_styles="false"
       interpolate_scalex="false"
       interpolate_scaley="true"
       interpolate_rotatex="false"
       interpolate_rotatey="true"
       random_scale="false"
       random_rotate="false"
       random_gap_y="false"
       random_gap_x="false"
       transformorigin="" />
  </defs>
  <g
     inkscape:label="Capa 1"
     inkscape:groupmode="layer"
     id="layer1">
    <path
       id="path5"
       style="stroke-width:9.35444;stroke-linejoin:round"
       d="M 66.145831 -0.37413736 A 66.145828 66.145828 0 0 0 0 65.771694 A 66.145828 66.145828 0 0 0 66.145831 131.91752 A 66.145828 66.145828 0 0 0 85.539995 129.01021 L 64.60484 68.776678 L 64.604323 68.776678 C 64.533228 68.785738 64.461769 68.793764 64.389866 68.800449 L 48.203774 108.13862 L 40.036314 103.81898 L 58.736464 66.506016 C 58.720232 66.487763 58.703983 66.46966 58.687889 66.451239 C 58.627824 66.488252 58.566502 66.524891 58.50392 66.561309 C 49.640161 71.719419 36.031079 68.998373 28.078388 61.170941 C 20.125695 53.343508 20.148423 42.691735 29.012182 37.533625 C 32.336091 35.599334 36.32701 34.772698 40.436807 34.907946 C 47.286468 35.133358 54.466247 38.030297 59.43668 42.922443 C 61.025333 44.486074 61.925813 46.183949 62.368284 47.923688 C 62.81852 47.859492 63.29347 47.82602 63.793003 47.82602 C 65.069005 47.82602 66.227669 47.997328 67.255841 48.325214 C 69.433557 45.294317 72.879781 42.719336 77.303806 40.995429 C 82.544966 38.95311 88.265918 38.453456 93.483696 39.409996 C 98.701474 40.366536 103.56357 42.900415 106.25449 46.872589 C 108.94542 50.844764 108.82922 55.316296 106.81622 59.090448 C 104.80322 62.864599 100.93609 66.100806 95.694931 68.143125 C 90.453771 70.185444 84.731267 70.686131 79.51349 69.729591 C 75.915911 69.070072 72.487583 67.661645 69.823643 65.548451 L 96.288693 124.65027 A 66.145828 66.145828 0 0 0 132.29166 65.771694 A 66.145828 66.145828 0 0 0 66.145831 -0.37413736 z M 44.058291 41.307555 C 41.427963 41.334286 38.845703 42.196712 36.396227 43.622142 C 30.797423 46.880269 27.268826 52.275709 33.249132 58.161822 C 39.229437 64.047934 48.64181 65.622793 54.240615 62.364667 C 54.95482 61.949047 55.58457 61.467718 56.127321 60.932196 C 55.8666 59.718008 55.739748 58.46891 55.739748 57.26782 C 55.739748 54.650892 56.34121 52.320094 57.61922 50.628949 C 56.90525 49.032065 55.794346 47.435899 54.265936 45.931562 C 50.902014 42.620624 47.440141 41.273186 44.058291 41.307555 z M 90.885405 46.149119 C 87.563135 46.181298 83.612721 46.961908 80.509295 48.171218 C 76.371393 49.783631 74.358772 51.152511 72.94955 53.794647 C 72.810877 54.054643 72.678592 54.303721 72.554742 54.543439 C 72.653617 55.13257 72.704087 55.754856 72.704087 56.407924 C 72.704087 57.563097 72.546049 58.803746 72.241583 60.037677 C 72.257004 60.061047 72.27319 60.084434 72.289125 60.107957 C 73.755128 62.271977 76.45914 63.81118 80.111903 64.480816 C 83.764666 65.150453 88.219248 64.828707 92.35715 63.216294 C 96.495051 61.60388 99.432161 59.045411 100.84139 56.403274 C 102.25062 53.761137 102.3074 52.123243 100.84139 49.959223 C 99.375377 47.795204 97.596379 47.0482 93.943616 46.378563 C 93.030425 46.211154 91.992829 46.138393 90.885405 46.149119 z " />
  </g>
</svg>
