<?xml version="1.0" encoding="UTF-8" standalone="no"?>
<svg
   viewBox="0 0 24 24"
   version="1.1"
   id="svg1"
   sodipodi:docname="phone-outline.svg"
   inkscape:version="1.3.2 (091e20e, 2023-11-25, custom)"
   xmlns:inkscape="http://www.inkscape.org/namespaces/inkscape"
   xmlns:sodipodi="http://sodipodi.sourceforge.net/DTD/sodipodi-0.dtd"
   xmlns="http://www.w3.org/2000/svg"
   xmlns:svg="http://www.w3.org/2000/svg">
  <defs
     id="defs1" />
  <sodipodi:namedview
     id="namedview1"
     pagecolor="#ffffff"
     bordercolor="#000000"
     borderopacity="0.25"
     inkscape:showpageshadow="2"
     inkscape:pageopacity="0.0"
     inkscape:pagecheckerboard="0"
     inkscape:deskcolor="#d1d1d1"
     inkscape:zoom="16.791667"
     inkscape:cx="9.528536"
     inkscape:cy="12.416873"
     inkscape:window-width="1920"
     inkscape:window-height="1009"
     inkscape:window-x="-8"
     inkscape:window-y="1192"
     inkscape:window-maximized="1"
     inkscape:current-layer="svg1" />
  <path
     d="m 20,15.5 c -1.2,0 -2.5,-0.2 -3.6,-0.6 -0.1,0 -0.2,0 -0.3,0 -0.3,0 -0.5,0.1 -0.7,0.3 l -2.2,2.2 C 10.4,15.9 8,13.6 6.6,10.8 L 8.8,8.6 C 9.1,8.3 9.2,7.9 9,7.6 8.7,6.5 8.5,5.2 8.5,4 8.5,3.5 8,3 7.5,3 H 4 C 3.5,3 3,3.5 3,4 c 0,9.4 7.6,17 17,17 0.5,0 1,-0.5 1,-1 v -3.5 c 0,-0.5 -0.5,-1 -1,-1"
     id="path1"
     style="stroke:#000000;stroke-opacity:1;fill:none" />
</svg>
